<svg width="19" height="12" viewBox="0 0 19 12" fill="none" xmlns="http://www.w3.org/2000/svg">
<path d="M14.3659 3.305C10.0359 3.305 10.0303 7.59105 10.0303 7.61309C10.0303 7.61309 9.73362 11.9045 14.3659 11.9045C14.3659 11.9045 18.2291 12.1227 18.2291 8.91787H16.2454C16.2454 8.91787 16.3111 10.1244 14.4319 10.1244C14.4319 10.1244 12.4482 10.2556 12.4482 8.1752H18.2951C18.2951 8.1752 18.9381 3.305 14.3659 3.305ZM12.426 6.67368C12.426 6.67368 12.6679 4.94832 14.41 4.94832C16.1575 4.94832 16.1299 6.67368 16.1299 6.67368H12.426ZM7.46985 5.57097C7.46985 5.57097 9.18979 5.44537 9.18979 3.43617C9.18979 1.43255 7.78306 0.449585 5.99711 0.449585H0.122437V11.6695H5.99658C5.99658 11.6695 9.58504 11.7789 9.58504 8.35549C9.5853 8.35549 9.73923 5.57097 7.46985 5.57097ZM2.7109 2.44232H5.99684C5.99684 2.44232 6.79374 2.44232 6.79374 3.61062C6.79374 4.77891 6.32661 4.94832 5.79348 4.94832H2.7109V2.44232ZM5.83223 9.67673H2.7109V6.67368H5.99684C5.99684 6.67368 7.18952 6.66279 7.18391 8.21875C7.18391 9.52936 6.29936 9.66584 5.83223 9.67673ZM11.937 1.1102V2.49171H16.5971V1.1102H11.937Z" fill="#F1F2F2"/>
</svg>
